<svg width="215" height="30" viewBox="0 0 215 30" fill="none" xmlns="http://www.w3.org/2000/svg">
<path d="M25.4213 22.5461C25.4213 23.702 25.1586 24.8002 24.6838 25.7783L24.638 25.872C23.4137 28.3135 20.8734 30.0005 17.9475 30.0005C15.0143 30.0005 12.4813 28.3135 11.2569 25.872L11.2111 25.7783L0.312477 4.04486C-0.617837 2.18729 0.736662 0.000488281 2.82143 0.000488281H13.2694C14.3323 0.000488281 15.3012 0.598854 15.7759 1.54566L17.9451 5.8712L24.6814 19.314C25.1586 20.292 25.4213 21.3927 25.4213 22.5461Z" fill="url(#paint0_linear_12_9014)"/>
<path d="M33.0806 0.000488281C35.1653 0.000488281 36.5198 2.18729 35.5871 4.04486L26.3081 22.5461L24.6812 25.7783C25.1584 24.8002 25.4187 23.6996 25.4187 22.5461C25.4187 21.3927 25.156 20.2921 24.6812 19.314L17.9473 5.8712L20.1164 1.54567C20.5912 0.598854 21.5625 0.000488281 22.6229 0.000488281H33.0806Z" fill="url(#paint1_linear_12_9014)"/>
<path d="M42.123 1.2771H55.242L60.3146 14.442L65.3873 1.2771H78.5062L66.6117 29.3622H54.0175L42.123 1.2771Z" fill="white"/>
<path d="M99.0084 30.0006C93.1525 30.0006 88.5825 28.7065 85.2984 26.1183C82.0539 23.53 80.4316 19.8634 80.4316 15.1183C80.4316 10.4516 81.8956 6.76532 84.8236 4.05943C87.7911 1.35355 92.0446 0.000610352 97.584 0.000610352C101.105 0.000610352 104.113 0.64767 106.605 1.94179C109.138 3.23591 111.037 5.00061 112.303 7.23591C113.609 9.4712 114.262 11.981 114.262 14.7653V18.5888H93.1327C94.2802 20.6281 96.8718 21.6477 100.908 21.6477C102.767 21.6477 104.706 21.5104 106.724 21.2359C108.782 20.9222 110.522 20.4908 111.947 19.9418V27.883C110.364 28.5104 108.406 29.0202 106.071 29.4124C103.776 29.8045 101.422 30.0006 99.0084 30.0006ZM101.679 11.3536C101.204 9.39277 99.7602 8.41238 97.3466 8.41238C95.0121 8.41238 93.6075 9.39277 93.1327 11.3536H101.679Z" fill="white"/>
<path d="M115.537 0.89036H128.129V3.44097C129.212 2.41282 130.682 1.58239 132.539 0.949676C134.396 0.316965 136.388 0.000610352 138.516 0.000610352V10.3217C136.234 10.3217 134.164 10.6381 132.307 11.2708C130.489 11.8639 129.251 12.7141 128.593 13.8214V29.3623H115.537V0.89036Z" fill="white"/>
<path d="M154.936 30.0006C152.459 30.0006 149.885 29.7849 147.212 29.3536C144.578 28.9222 142.476 28.2947 140.903 27.4712V18.53C142.554 19.4712 144.578 20.2751 146.976 20.9418C149.374 21.6085 151.516 21.9418 153.403 21.9418C154.307 21.9418 154.955 21.9026 155.348 21.8241C155.741 21.7457 155.938 21.5692 155.938 21.2947C155.938 21.0987 155.761 20.9418 155.407 20.8241C155.054 20.7065 154.582 20.5888 153.992 20.4712C152.577 20.1967 151.319 19.9026 150.219 19.5888C146.642 18.4908 144.107 17.2359 142.613 15.8241C141.159 14.3732 140.432 12.3339 140.432 9.70649C140.432 6.41238 141.729 3.981 144.323 2.41238C146.917 0.804532 150.494 0.000610352 155.054 0.000610352C157.176 0.000610352 159.515 0.235905 162.07 0.706494C164.664 1.17708 166.57 1.78493 167.789 2.53002V11.4712C166.61 10.6477 164.939 9.94179 162.777 9.35355C160.615 8.7261 158.689 8.41238 156.999 8.41238C156.213 8.41238 155.565 8.4712 155.054 8.58885C154.543 8.70649 154.287 8.86336 154.287 9.05943C154.287 9.25551 154.503 9.43198 154.936 9.58885C155.368 9.74571 156.056 9.90257 156.999 10.0594C158.847 10.4124 159.888 10.6281 160.124 10.7065C162.718 11.3732 164.703 12.1575 166.079 13.0594C167.494 13.9222 168.457 14.9418 168.968 16.1183C169.518 17.2947 169.793 18.7849 169.793 20.5888C169.793 23.4516 168.516 25.7457 165.961 27.4712C163.406 29.1575 159.731 30.0006 154.936 30.0006Z" fill="white"/>
<path d="M189.939 30.0006C184.194 30.0006 179.71 28.7065 176.488 26.1183C173.305 23.53 171.713 19.8634 171.713 15.1183C171.713 10.4516 173.149 6.76532 176.022 4.05943C178.934 1.35355 183.107 0.000610352 188.542 0.000610352C191.997 0.000610352 194.947 0.64767 197.393 1.94179C199.877 3.23591 201.741 5.00061 202.983 7.23591C204.264 9.4712 204.905 11.981 204.905 14.7653V18.5888H184.174C185.3 20.6281 187.843 21.6477 191.803 21.6477C193.627 21.6477 195.529 21.5104 197.509 21.2359C199.528 20.9222 201.236 20.4908 202.634 19.9418V27.883C201.081 28.5104 199.159 29.0202 196.869 29.4124C194.617 29.8045 192.307 30.0006 189.939 30.0006ZM192.56 11.3536C192.094 9.39277 190.677 8.41238 188.309 8.41238C186.018 8.41238 184.64 9.39277 184.174 11.3536H192.56Z" fill="white"/>
<path d="M208.447 25.3299L207.139 28.8942H206.271L204.964 25.3299H205.73L206.71 28.164L207.686 25.3299H208.447ZM208.707 25.8303V25.1716H209.937V28.8942H209.202V25.8303H208.707ZM211.042 28.9299C210.913 28.9299 210.805 28.8908 210.72 28.8125C210.639 28.7308 210.598 28.6303 210.598 28.5112C210.598 28.392 210.639 28.2933 210.72 28.215C210.805 28.1333 210.913 28.0925 211.042 28.0925C211.168 28.0925 211.272 28.1333 211.353 28.215C211.435 28.2933 211.476 28.392 211.476 28.5112C211.476 28.6303 211.435 28.7308 211.353 28.8125C211.272 28.8908 211.168 28.9299 211.042 28.9299ZM211.97 26.9844C211.97 26.3954 212.076 25.9342 212.287 25.6005C212.501 25.2669 212.855 25.1001 213.349 25.1001C213.842 25.1001 214.195 25.2669 214.406 25.6005C214.62 25.9342 214.728 26.3954 214.728 26.9844C214.728 27.5767 214.62 28.0414 214.406 28.3784C214.195 28.7154 213.842 28.884 213.349 28.884C212.855 28.884 212.501 28.7154 212.287 28.3784C212.076 28.0414 211.97 27.5767 211.97 26.9844ZM214.023 26.9844C214.023 26.7325 214.006 26.5214 213.972 26.3512C213.941 26.1776 213.876 26.0363 213.778 25.9273C213.682 25.8184 213.539 25.7639 213.349 25.7639C213.158 25.7639 213.013 25.8184 212.915 25.9273C212.819 26.0363 212.755 26.1776 212.721 26.3512C212.69 26.5214 212.675 26.7325 212.675 26.9844C212.675 27.2431 212.69 27.461 212.721 27.638C212.751 27.8116 212.816 27.9529 212.915 28.0618C213.013 28.1674 213.158 28.2201 213.349 28.2201C213.539 28.2201 213.684 28.1674 213.783 28.0618C213.882 27.9529 213.946 27.8116 213.977 27.638C214.008 27.461 214.023 27.2431 214.023 26.9844Z" fill="white"/>
<defs>
<linearGradient id="paint0_linear_12_9014" x1="0.0136197" y1="15.0004" x2="25.4207" y2="15.0004" gradientUnits="userSpaceOnUse">
<stop stop-color="#FA4001"/>
<stop offset="0.333333" stop-color="#CD0D14"/>
<stop offset="0.666667" stop-color="#A91D1E"/>
<stop offset="1" stop-color="#812924"/>
</linearGradient>
<linearGradient id="paint1_linear_12_9014" x1="17.9476" y1="12.8902" x2="35.8882" y2="12.8902" gradientUnits="userSpaceOnUse">
<stop stop-color="#016DEA"/>
<stop offset="0.334096" stop-color="#005FCD"/>
<stop offset="0.634882" stop-color="#0052B1"/>
<stop offset="1" stop-color="#003B7E"/>
</linearGradient>
</defs>
</svg>
